<svg xmlns="http://www.w3.org/2000/svg" xmlns:xlink="http://www.w3.org/1999/xlink" width="512" height="512" viewBox="0 0 510 510"><linearGradient id="a"><stop offset="0" stop-color="#f8f6f7"/><stop offset=".18" stop-color="#f8f6f7"/><stop offset="1" stop-color="#e7e6f5"/></linearGradient><linearGradient xlink:href="#a" id="c" x1="41.63" x2="485.67" y1="255" y2="255" gradientUnits="userSpaceOnUse"/><linearGradient id="d" x1="-486" x2="770.97" y1="255" y2="255" gradientUnits="userSpaceOnUse"><stop offset="0" stop-color="#f8f6f7"/><stop offset="1" stop-color="#d1ceeb"/></linearGradient><linearGradient xlink:href="#a" id="e" x1="329.61" x2="460.53" y1="60.74" y2="60.74" gradientUnits="userSpaceOnUse"/><linearGradient id="b"><stop offset="0" stop-color="#fe93bb"/><stop offset=".56" stop-color="#925cb4"/><stop offset="1" stop-color="#5b3374"/></linearGradient><linearGradient xlink:href="#b" id="f" x1="38" x2="540.05" y1="367.82" y2="367.82" gradientUnits="userSpaceOnUse"/><linearGradient xlink:href="#b" id="g" x1="188" x2="407.01" y1="367.82" y2="367.82" gradientUnits="userSpaceOnUse"/><linearGradient xlink:href="#b" id="h" x1="150" x2="387.3" y1="248.39" y2="248.39" gradientUnits="userSpaceOnUse"/><linearGradient xlink:href="#b" id="i" x1="150" x2="387.3" y1="200.35" y2="200.35" gradientUnits="userSpaceOnUse"/><linearGradient xlink:href="#b" id="j" x1="150" x2="387.3" y1="152.31" y2="152.31" gradientUnits="userSpaceOnUse"/><linearGradient xlink:href="#b" id="k" x1="134" x2="307.03" y1="137" y2="137" gradientUnits="userSpaceOnUse"/><path fill="url(#c)" d="M75.1 493.02V16.98C75.1 7.6 82.7 0 92.08 0h285.19a57.63 57.63 0 0 1 57.63 57.63v435.4c0 9.37-7.6 16.97-16.98 16.97H92.08c-9.38 0-16.98-7.6-16.98-16.98"/><path fill="url(#d)" d="M377.27 0h-81.03v129.37c0 9.38 7.6 16.98 16.98 16.98h39.9a41.35 41.35 0 0 1 41.34 41.35v245.63H75.1v31.18h302.2c9.48 0 17.17 7.68 17.17 17.16v11.35c0 9.38-7.6 16.98-16.98 16.98h40.43c9.38 0 16.98-7.6 16.98-16.98V57.62A57.63 57.63 0 0 0 377.27 0"/><path fill="url(#e)" d="M377.27 0H321.1v104.5c0 9.38 7.6 16.98 16.98 16.98h96.82V57.63A57.63 57.63 0 0 0 377.27 0"/><path fill="url(#f)" d="M451.75 439.64H58.25A20.25 20.25 0 0 1 38 419.4V316.25A20.25 20.25 0 0 1 58.25 296h393.5A20.25 20.25 0 0 1 472 316.25v103.14a20.25 20.25 0 0 1-20.25 20.25"/><path fill="url(#g)" d="M451.75 296h-40.43a20.25 20.25 0 0 1 20.25 20.25v103.14a20.25 20.25 0 0 1-20.25 20.25h40.43A20.25 20.25 0 0 0 472 419.4V316.25A20.25 20.25 0 0 0 451.75 296"/><path fill="#fff" d="M153.04 326.77c0-3.08 2.83-5.8 7.15-5.8h25.54c16.28 0 29.11 7.65 29.11 28.38v.61c0 20.73-13.32 28.63-30.35 28.63h-12.21v26.64c0 3.95-4.81 5.92-9.62 5.92s-9.62-1.97-9.62-5.92zm19.24 10.98v26.03h12.21c6.91 0 11.1-3.95 11.1-12.33v-1.36c0-8.4-4.19-12.34-11.1-12.34zm93.64 68.22-23.44-42.68v41.94c0 3.95-4.81 5.92-9.63 5.92s-9.62-1.97-9.62-5.92V326.9c0-4.07 4.81-5.92 9.62-5.92 6.91 0 9.5.62 14.2 9.62l19.98 38.13v-41.95c0-4.07 4.8-5.8 9.62-5.8s9.62 1.73 9.62 5.8v78.46c0 3.95-4.8 5.92-9.62 5.92-4.44 0-8.39-.86-10.73-5.18m63.04-68.23c-7.03 0-11.1 3.95-11.1 12.34v32.69c0 8.39 4.07 12.34 10.97 12.34s11.1-3.95 11.1-12.34v-4.2h-7.27c-3.7 0-5.8-3.57-5.8-7.4 0-3.57 2.1-7.4 5.8-7.4h20.73c3.7 0 5.8 2.84 5.8 6.05v12.95c0 21.22-13.33 29.12-30.36 29.12-17.02 0-30.22-7.9-30.22-29.12v-32.7c0-21.21 13.45-29.1 29.6-29.1 17.65 0 30.97 8.88 30.97 24.55 0 7.4-3.08 9.12-9.62 9.12-5.18 0-9.5-1.35-9.62-5.8-.13-4.44-.5-11.1-10.98-11.1"/><path fill="url(#h)" d="M222.83 223.74h-31.75a8.8 8.8 0 0 0-8.77 8.78v31.75a8.8 8.8 0 0 0 8.77 8.77h31.75a8.8 8.8 0 0 0 8.78-8.77v-31.75a8.8 8.8 0 0 0-8.78-8.78"/><path fill="url(#h)" d="M318.92 223.74h-31.75a8.8 8.8 0 0 0-8.78 8.78v31.75a8.8 8.8 0 0 0 8.78 8.77h31.75a8.8 8.8 0 0 0 8.77-8.77v-31.75a8.8 8.8 0 0 0-8.77-8.78"/><path fill="url(#i)" d="M279.65 184.48a8.8 8.8 0 0 0-8.77-8.78h-31.75a8.8 8.8 0 0 0-8.78 8.78v31.75a8.8 8.8 0 0 0 8.78 8.77h31.75a8.8 8.8 0 0 0 8.77-8.77z"/><g fill="url(#j)"><path d="M318.92 127.66h-31.75a8.8 8.8 0 0 0-8.78 8.77v31.75a8.8 8.8 0 0 0 8.78 8.78h31.75a8.8 8.8 0 0 0 8.77-8.78v-31.75a8.8 8.8 0 0 0-8.77-8.77"/><path d="M191.08 176.96h31.75a8.8 8.8 0 0 0 8.78-8.78v-31.75a8.8 8.8 0 0 0-8.78-8.77h-31.75a8.8 8.8 0 0 0-8.77 8.77v31.75a8.8 8.8 0 0 0 8.77 8.78"/></g><path fill="url(#k)" d="M313.21 146.35h14.48v-9.92a8.8 8.8 0 0 0-8.77-8.77h-22.68v1.71c0 9.38 7.6 16.98 16.97 16.98"/></svg>