<svg xmlns="http://www.w3.org/2000/svg" xmlns:xlink="http://www.w3.org/1999/xlink" width="512" height="512" viewBox="0 0 510 510"><linearGradient id="a"><stop offset="0" stop-color="#f9f5f3"/><stop offset="1" stop-color="#efe2dd"/></linearGradient><linearGradient xlink:href="#a" id="j" x1="219.27" x2="231.61" y1="424.31" y2="433.31" gradientUnits="userSpaceOnUse"/><linearGradient xlink:href="#a" id="k" x1="-1809.22" x2="-1796.88" y1="424.31" y2="433.31" gradientTransform="matrix(-1 0 0 1 -1518.2 0)" gradientUnits="userSpaceOnUse"/><linearGradient xlink:href="#a" id="l" x1="255.15" x2="255.15" y1="225.14" y2="407.49" gradientUnits="userSpaceOnUse"/><linearGradient id="b"><stop offset="0" stop-color="#9e9797" stop-opacity="0"/><stop offset=".36" stop-color="#9b9494" stop-opacity=".36"/><stop offset=".63" stop-color="#928b8b" stop-opacity=".63"/><stop offset=".87" stop-color="#827a7a" stop-opacity=".87"/><stop offset="1" stop-color="#766e6e"/></linearGradient><linearGradient xlink:href="#b" id="m" x1="413.95" x2="413.95" y1="299.81" y2="255.28" gradientUnits="userSpaceOnUse"/><linearGradient xlink:href="#b" id="n" x1="96.34" x2="96.34" y1="299.81" y2="255.28" gradientUnits="userSpaceOnUse"/><linearGradient xlink:href="#b" id="o" x1="307.18" x2="276.63" y1="386.17" y2="386.17" gradientUnits="userSpaceOnUse"/><linearGradient xlink:href="#a" id="p" x1="240.92" x2="248.94" y1="387.52" y2="405.77" gradientUnits="userSpaceOnUse"/><linearGradient xlink:href="#b" id="q" x1="232.62" x2="269.11" y1="402.7" y2="399.54" gradientUnits="userSpaceOnUse"/><linearGradient xlink:href="#a" id="r" x1="261.62" x2="267.1" y1="384.85" y2="401.41" gradientUnits="userSpaceOnUse"/><linearGradient id="c"><stop offset="0" stop-color="#554e56"/><stop offset="1" stop-color="#433f43"/></linearGradient><linearGradient xlink:href="#c" id="s" x1="372.8" x2="396.81" y1="133.68" y2="219.73" gradientUnits="userSpaceOnUse"/><linearGradient id="d"><stop offset="0" stop-color="#433f43" stop-opacity="0"/><stop offset="1" stop-color="#1a1a1a"/></linearGradient><linearGradient xlink:href="#d" id="t" x1="435.98" x2="381.94" y1="137.84" y2="176.52" gradientUnits="userSpaceOnUse"/><linearGradient xlink:href="#c" id="u" x1="232.8" x2="293.5" y1="142.62" y2="142.62" gradientUnits="userSpaceOnUse"/><linearGradient xlink:href="#d" id="v" x1="279.67" x2="265" y1="104.69" y2="178.73" gradientUnits="userSpaceOnUse"/><linearGradient xlink:href="#d" id="w" x1="255.15" x2="255.15" y1="56.08" y2="87.35" gradientUnits="userSpaceOnUse"/><linearGradient xlink:href="#c" id="x" x1="255" x2="255" y1="149.86" y2="281.94" gradientUnits="userSpaceOnUse"/><linearGradient id="e"><stop offset="0" stop-color="#ffdc00"/><stop offset="1" stop-color="#ffab00"/></linearGradient><linearGradient xlink:href="#e" id="y" x1="255" x2="255" y1="150.86" y2="202.97" gradientUnits="userSpaceOnUse"/><linearGradient xlink:href="#d" id="z" x1="255" x2="255" y1="233.9" y2="283.97" gradientUnits="userSpaceOnUse"/><linearGradient xlink:href="#d" id="A" x1="240.88" x2="156.34" y1="283.73" y2="201.68" gradientUnits="userSpaceOnUse"/><linearGradient id="f"><stop offset="0" stop-color="#fe9738"/><stop offset="1" stop-color="#ef4424"/></linearGradient><linearGradient xlink:href="#f" id="B" x1="163.69" x2="179.32" y1="205.14" y2="243.6" gradientUnits="userSpaceOnUse"/><linearGradient id="g"><stop offset="0" stop-color="#a72b2b" stop-opacity="0"/><stop offset=".17" stop-color="#a12a28" stop-opacity=".17"/><stop offset=".42" stop-color="#8e2821" stop-opacity=".41"/><stop offset=".7" stop-color="#6f2415" stop-opacity=".7"/><stop offset="1" stop-color="#481f05"/></linearGradient><linearGradient xlink:href="#g" id="C" x1="174.86" x2="165.42" y1="232.82" y2="213.08" gradientUnits="userSpaceOnUse"/><linearGradient xlink:href="#g" id="D" x1="175.39" x2="180.54" y1="233.96" y2="249.75" gradientUnits="userSpaceOnUse"/><linearGradient xlink:href="#g" id="E" x1="892.41" x2="886.87" y1="-218.59" y2="-200.95" gradientTransform="rotate(59.46 151.14 -627.14)" gradientUnits="userSpaceOnUse"/><linearGradient xlink:href="#f" id="F" x1="176.41" x2="194.1" y1="187.29" y2="215.28" gradientUnits="userSpaceOnUse"/><linearGradient xlink:href="#g" id="G" x1="181.9" x2="176.36" y1="192.17" y2="209.82" gradientUnits="userSpaceOnUse"/><linearGradient xlink:href="#f" id="H" x1="133.71" x2="152.59" y1="214.7" y2="232.73" gradientUnits="userSpaceOnUse"/><linearGradient xlink:href="#g" id="I" x1="136.12" x2="131.14" y1="232.81" y2="249.81" gradientUnits="userSpaceOnUse"/><linearGradient xlink:href="#g" id="J" x1="993.46" x2="987.92" y1="-389.83" y2="-372.19" gradientTransform="rotate(120.54 613.14 59.31)scale(1 -1)" gradientUnits="userSpaceOnUse"/><linearGradient xlink:href="#f" id="K" x1="119.33" x2="135.68" y1="190.94" y2="214.25" gradientUnits="userSpaceOnUse"/><linearGradient xlink:href="#g" id="L" x1="173.07" x2="167.53" y1="192.17" y2="209.82" gradientTransform="matrix(-1 0 0 1 302.34 0)" gradientUnits="userSpaceOnUse"/><linearGradient xlink:href="#f" id="M" x1="161.6" x2="178.25" y1="165.97" y2="188.47" gradientUnits="userSpaceOnUse"/><linearGradient xlink:href="#g" id="N" x1="-638.49" x2="-644.03" y1="-389.83" y2="-372.19" gradientTransform="rotate(-59.46 255.01 -808.95)" gradientUnits="userSpaceOnUse"/><linearGradient xlink:href="#f" id="O" x1="133.44" x2="153.87" y1="164.23" y2="186.72" gradientUnits="userSpaceOnUse"/><linearGradient xlink:href="#g" id="P" x1="-537.44" x2="-542.98" y1="-218.59" y2="-200.95" gradientTransform="rotate(59.46 0 -362.42)scale(-1 1)" gradientUnits="userSpaceOnUse"/><linearGradient xlink:href="#g" id="Q" x1="176.58" x2="157.34" y1="225.96" y2="194.02" gradientUnits="userSpaceOnUse"/><linearGradient xlink:href="#f" id="R" x1="144.16" x2="163.87" y1="188.93" y2="208.63" gradientUnits="userSpaceOnUse"/><linearGradient xlink:href="#e" id="S" x1="150.19" x2="161.28" y1="194.96" y2="206.04" gradientUnits="userSpaceOnUse"/><linearGradient id="h"><stop offset="0" stop-color="#a2e62e"/><stop offset=".12" stop-color="#97de30"/><stop offset=".34" stop-color="#79cb36"/><stop offset=".62" stop-color="#4aab3f"/><stop offset=".96" stop-color="#09804c"/><stop offset="1" stop-color="#017b4e"/></linearGradient><linearGradient xlink:href="#h" id="T" x1="-1848.02" x2="-1776.31" y1="-850.39" y2="-778.68" gradientTransform="rotate(90 -1307.68 737.92)" gradientUnits="userSpaceOnUse"/><linearGradient id="i"><stop offset="0" stop-color="#ffa1ae"/><stop offset="1" stop-color="#ff4565"/></linearGradient><linearGradient xlink:href="#i" id="U" x1="-2647" x2="-2619.65" y1="1223.02" y2="1250.37" gradientTransform="rotate(135 -1483.4 83.57)scale(1 -1)" gradientUnits="userSpaceOnUse"/><linearGradient xlink:href="#h" id="V" x1="59.27" x2="96.11" y1="214.51" y2="251.34" gradientUnits="userSpaceOnUse"/><linearGradient xlink:href="#h" id="W" x1="25.45" x2="60.8" y1="207.15" y2="242.49" gradientUnits="userSpaceOnUse"/><linearGradient xlink:href="#i" id="X" x1="-985.41" x2="-958.06" y1="-438.57" y2="-411.22" gradientTransform="rotate(45 -1221.4 1119.61)" gradientUnits="userSpaceOnUse"/><path fill="url(#j)" d="M267.93 399.94c-9.5 6.2-18.5 13.47-26.82 21.8a166 166 0 0 0-31.77 44.33 7.5 7.5 0 0 1-13.46-6.64 181 181 0 0 1 46.87-59.49z"/><path fill="url(#k)" d="M242.36 399.94c9.5 6.2 18.5 13.47 26.82 21.8a166 166 0 0 1 31.77 44.33 7.5 7.5 0 0 0 13.46-6.64 181 181 0 0 0-46.87-59.49z"/><path fill="url(#l)" d="M255.15 407.49c-100.56 0-182.36-81.8-182.36-182.35H87.8c0 92.27 75.07 167.34 167.35 167.34s167.34-75.07 167.34-167.34h15.01c0 100.55-81.8 182.35-182.35 182.35"/><path fill="url(#m)" d="M390.4 323.56h18.2a181.3 181.3 0 0 0 28.9-98.42h-15c0 36.76-11.93 70.78-32.1 98.42"/><path fill="url(#n)" d="M87.8 225.14h-15c0 36.22 10.61 70.01 28.9 98.42h18.2a166.4 166.4 0 0 1-32.1-98.42"/><path fill="url(#o)" d="M263.28 407.3a181 181 0 0 0 83.59-24.61v-17.65a166 166 0 0 1-83.59 27.24z"/><path fill="url(#p)" d="M268.33 399.12c0 9.86-9.68 17.85-21.62 17.85s-21.63-7.99-21.63-17.85 8.42-12.48 13.65-12.48c11.94 0 29.6 12.48 29.6 12.48"/><path fill="url(#q)" d="M268.33 399.12c0 9.86-9.68 17.85-21.62 17.85s-21.63-7.99-21.63-17.85 8.42-12.48 13.65-12.48c11.94 0 29.6 12.48 29.6 12.48"/><path fill="url(#r)" d="M250.76 403.16c-7.12-3.91-8.03-14.05-1.46-18.82a24.3 24.3 0 0 1 14.28-4.45c11.95 0 21.63 8 21.63 17.86s-8.42 12.47-13.65 12.47c-6.5 0-14.68-3.69-20.8-7.06"/><path fill="url(#s)" d="M458.04 134.64c-65.5-31.93-142.55-27.8-204.76 9.2q7.12 4.05 13.96 8.66l51.61 34.8a231.5 231.5 0 0 0 165.19 36.8A31.4 31.4 0 0 0 504 212.34c3.91-6.59 6-13.43 6-20.45-.01-21.51-19.36-41.35-51.97-57.24"/><path fill="url(#t)" d="M458.04 134.64c-65.5-31.93-142.55-27.8-204.76 9.2q7.12 4.05 13.96 8.66l51.61 34.8a231.5 231.5 0 0 0 165.19 36.8A31.4 31.4 0 0 0 504 212.34c3.91-6.59 6-13.43 6-20.45-.01-21.51-19.36-41.35-51.97-57.24"/><path fill="url(#u)" d="m112.4 227.09 68.32-141.82c29.23-60.69 119.62-60.69 148.86 0l68.32 141.82c11.82 24.54-297.33 24.54-285.5 0"/><path fill="url(#v)" d="m112.4 227.09 68.32-141.82c29.23-60.69 119.62-60.69 148.86 0l68.32 141.82c11.82 24.54-297.33 24.54-285.5 0"/><path fill="url(#w)" d="M201.71 58.43c7.23 13.72 28.41 23.66 53.44 23.66s46.2-9.94 53.43-23.66c-30.27-24.89-76.6-24.89-106.87 0"/><path fill="url(#x)" d="M510 196.23c-6.13 50.24-117.88 90.27-254.85 90.27C114.23 286.5 0 244.14 0 191.88c0-21.51 19.36-41.35 51.96-57.24 69.25-33.76 151.4-27.22 215.28 15.86l51.61 34.8a231.5 231.5 0 0 0 165.19 36.8c13.43-2.1 24.12-12.63 25.96-25.87"/><path fill="url(#y)" d="M52.88 152.1c69.09-33.26 150.79-26.56 214.36 16.31l51.61 34.8c39.42 26.6 88.11 40.24 135.71 39.55 18.59-.27 36.26-8.98 46.82-24.28a49 49 0 0 0 8.62-22.25c-1.84 13.24-12.53 23.78-25.96 25.88-57.73 9.01-116.74-5.13-165.19-37.8l-51.6-35.81c-63.88-43.08-146.04-49.62-215.3-15.86C19.36 148.53 0 168.36 0 189.88c0 3.02.4 8 1.14 10.95 4.63-18.24 23.2-34.98 51.74-48.72"/><path fill="url(#z)" d="M0 191.88c0 52.26 114.24 94.62 255.15 94.62 136.97 0 248.72-40.03 254.85-90.27-1.84 13.24-12.53 23.78-25.96 25.88a231.5 231.5 0 0 1-165.19-36.8l-31.05-20.95H10.96C3.84 173.07 0 182.31 0 191.88"/><path fill="url(#A)" d="m311.45 284.2-119-119-71.4 72.5 42.5 42.52a652 652 0 0 0 91.6 6.28c19.34 0 38.19-.8 56.3-2.3"/><path fill="url(#B)" d="M177.25 243.7q1-1.47 2.47-2.45a9 9 0 0 1 3.35-.98l.25-.02c11.77-1.06 16.53-15.82 6.8-21.12l-34.54-18.78-.25 39.32c-.07 11.07 15.16 14.04 21.77 4.24z"/><path fill="url(#C)" d="M177.25 243.7q1-1.47 2.47-2.45a9 9 0 0 1 3.35-.98l.25-.02c11.77-1.06 16.53-15.82 6.8-21.12l-34.54-18.78-.25 39.32c-.07 11.07 15.16 14.04 21.77 4.24z"/><path fill="url(#D)" d="M177.25 243.7q1-1.47 2.47-2.45a9 9 0 0 1 3.35-.98l.25-.02c11.77-1.06 16.53-15.82 6.8-21.12l-34.54-18.78-.25 39.32c-.07 11.07 15.16 14.04 21.77 4.24z"/><path fill="url(#E)" d="m190.12 219.14-34.54-18.8 24.14 40.91a9 9 0 0 1 3.35-.98l.25-.02c11.77-1.06 16.53-15.82 6.8-21.12"/><path fill="url(#F)" d="M203.93 203.73a9 9 0 0 1-.85-3.38 9 9 0 0 1 .85-3.38l.11-.23c5.08-10.67-5.22-22.28-14.72-16.6l-33.74 20.2 33.74 20.2c9.5 5.7 19.8-5.91 14.72-16.59z"/><path fill="url(#G)" d="m189.32 180.15-33.74 20.2h47.5a9 9 0 0 1 .85-3.38l.11-.23c5.08-10.68-5.22-22.28-14.72-16.6"/><path fill="url(#H)" d="M133.92 243.7a9 9 0 0 0-2.47-2.45 9 9 0 0 0-3.35-.98l-.25-.02c-11.77-1.06-16.53-15.82-6.8-21.12l34.53-18.78.26 39.32c.07 11.07-15.16 14.04-21.78 4.24z"/><path fill="url(#I)" d="M133.92 243.7a9 9 0 0 0-2.47-2.45 9 9 0 0 0-3.35-.98l-.25-.02c-11.77-1.06-16.53-15.82-6.8-21.12l34.53-18.78.26 39.32c.07 11.07-15.16 14.04-21.78 4.24z"/><path fill="url(#J)" d="m121.04 219.14 34.54-18.8-24.13 40.91a9 9 0 0 0-3.35-.98l-.25-.02c-11.77-1.06-16.53-15.82-6.8-21.12"/><path fill="url(#K)" d="M107.24 203.73c.5-1.06.78-2.22.85-3.38a9 9 0 0 0-.86-3.38l-.1-.23c-5.08-10.67 5.22-22.28 14.72-16.6l33.74 20.2-33.74 20.2c-9.5 5.7-19.8-5.91-14.72-16.59z"/><path fill="url(#L)" d="m121.85 180.15 33.73 20.2h-47.5a9 9 0 0 0-.85-3.38l-.1-.23c-5.08-10.68 5.22-22.28 14.72-16.6"/><path fill="url(#M)" d="M183.07 160.42a9 9 0 0 1-3.35-.98 9 9 0 0 1-2.47-2.45l-.14-.2c-6.62-9.8-21.85-6.84-21.78 4.24l.25 39.32 34.54-18.8c9.73-5.28 4.97-20.05-6.8-21.1z"/><path fill="url(#N)" d="m155.33 161.03.25 39.32 24.14-40.9a9 9 0 0 1-2.47-2.46l-.14-.2c-6.62-9.8-21.85-6.84-21.78 4.24"/><path fill="url(#O)" d="M128.1 160.42q1.76-.16 3.35-.98a9 9 0 0 0 2.47-2.45l.14-.2c6.62-9.8 21.85-6.84 21.78 4.24l-.26 39.32-34.54-18.8c-9.73-5.28-4.96-20.05 6.81-21.1z"/><path fill="url(#P)" d="m155.84 161.03-.26 39.32-24.13-40.9a9 9 0 0 0 2.47-2.46l.14-.2c6.62-9.8 21.85-6.84 21.78 4.24"/><path fill="url(#Q)" d="m204 215.63-26.55-26.55-41.62 25.09 34.85 34.85c2.44-.9 4.72-2.58 6.43-5.1l.14-.22q1-1.47 2.47-2.45a9 9 0 0 1 3.35-.98l.25-.02c10.05-.9 15-11.8 10.16-18.26 4.41.48 8.48-2.27 10.52-6.36"/><path fill="url(#R)" d="M177.45 189.08a9.9 9.9 0 0 0-8.34-4.96 3.6 3.6 0 0 1-3.18-2.23 9.94 9.94 0 0 0-17.58-1.46 3.6 3.6 0 0 1-3.51 1.73 9.94 9.94 0 0 0-10.08 14.59 3.6 3.6 0 0 1-.34 3.87 9.94 9.94 0 0 0 7.64 15.96 3.6 3.6 0 0 1 3.18 2.23 9.93 9.93 0 0 0 17.58 1.45 3.6 3.6 0 0 1 3.51-1.73 9.94 9.94 0 0 0 10.07-14.59 3.6 3.6 0 0 1 .35-3.86 9.9 9.9 0 0 0 .7-11"/><circle cx="155.58" cy="200.35" r="11.33" fill="url(#S)"/><path fill="url(#T)" d="M231.38 225.32v5.55c0 8.42 3.42 16.06 8.95 21.59a30.5 30.5 0 0 0 22.84 8.93 30.6 30.6 0 0 0 20.25-8.83 30.4 30.4 0 0 0 9.05-21.7 27.6 27.6 0 0 0-27.58-27.57 7.7 7.7 0 0 0-7.7 8.14c.21 4.11 3.76 7.24 7.88 7.3 6.6.1 11.96 5.5 11.96 12.14 0 8.24-6.64 14.97-14.85 15.1-8.45.15-15.37-7-15.37-15.45v-6.22q0-.93-.22-1.85a36.5 36.5 0 0 0-17.64-23.14 7.7 7.7 0 0 0-11.19 4.93 7.6 7.6 0 0 0 3.61 8.52 21 21 0 0 1 10 12.56"/><path fill="url(#U)" d="M277.77 216.61a16.94 16.94 0 0 1-23.96 0c-7.96-7.96-9.63-25.3-9.97-31.63-.07-1.3 1-2.37 2.3-2.3 6.33.34 23.66 2.01 31.63 9.98a16.94 16.94 0 0 1 0 23.95"/><path fill="url(#V)" d="M81.6 199.3a36.5 36.5 0 0 0-17.64 23.15 8 8 0 0 0-.22 1.86v6.22c0 8.45-6.92 15.59-15.37 15.45q-1.8-.05-3.46-.48a81 81 0 0 0 21.62 10.1q1.96-1.43 3.68-3.14a30.5 30.5 0 0 0 8.96-21.59v-5.55a21 21 0 0 1 10-12.56c3-1.66 4.44-5.2 3.62-8.52a7.7 7.7 0 0 0-11.2-4.93"/><path fill="url(#W)" d="M45.48 218.73c4.12-.06 7.67-3.19 7.88-7.3a7.7 7.7 0 0 0-7.7-8.13 27.6 27.6 0 0 0-27.32 23.86c4.61 5.3 12.43 10.93 19.62 14.4a15 15 0 0 1-4.44-10.7c0-6.62 5.35-12.03 11.96-12.13"/><path fill="url(#X)" d="M32.78 216.61a16.94 16.94 0 0 0 23.95 0c7.97-7.96 9.64-25.3 9.98-31.63.07-1.3-1-2.37-2.3-2.3-6.33.34-23.67 2.01-31.63 9.98a16.94 16.94 0 0 0 0 23.95"/></svg>