<svg xmlns="http://www.w3.org/2000/svg" xmlns:xlink="http://www.w3.org/1999/xlink" width="512" height="512" viewBox="0 0 510 510"><linearGradient id="a"><stop offset="0" stop-color="#f8f6fb"/><stop offset=".41" stop-color="#f7f3fb"/><stop offset=".76" stop-color="#f3e8fb"/><stop offset="1" stop-color="#efdcfb"/></linearGradient><radialGradient xlink:href="#a" id="e" cx="188.76" cy="182.76" r="289.7" gradientUnits="userSpaceOnUse"/><linearGradient id="b"><stop offset="0" stop-color="#8a7889"/><stop offset="1" stop-color="#6e566e"/></linearGradient><linearGradient xlink:href="#b" id="f" x1="120.21" x2="447.21" y1="121.4" y2="366.65" gradientUnits="userSpaceOnUse"/><linearGradient id="c"><stop offset="0" stop-color="#6e566e" stop-opacity="0"/><stop offset="1" stop-color="#6e566e"/></linearGradient><linearGradient xlink:href="#c" id="g" x1="263.86" x2="614.37" y1="352.73" y2="-299.17" gradientUnits="userSpaceOnUse"/><linearGradient id="d"><stop offset="0" stop-color="#8a7889" stop-opacity="0"/><stop offset="1" stop-color="#9d8b91"/></linearGradient><linearGradient xlink:href="#d" id="h" x1="286.93" x2="251.01" y1="181" y2="-4.12" gradientUnits="userSpaceOnUse"/><radialGradient xlink:href="#a" id="i" cx="255" cy="127.5" r="41.09" gradientUnits="userSpaceOnUse"/><linearGradient id="j" x1="258.07" x2="209.68" y1="134.2" y2="28.49" gradientUnits="userSpaceOnUse"><stop offset="0" stop-color="#fff" stop-opacity="0"/><stop offset="1" stop-color="#fff"/></linearGradient><linearGradient id="k" x1="256.43" x2="312.91" y1="143.25" y2="38.2" gradientUnits="userSpaceOnUse"><stop offset="0" stop-color="#efdcfb" stop-opacity="0"/><stop offset=".49" stop-color="#baaad6" stop-opacity=".49"/><stop offset="1" stop-color="#8679b2"/></linearGradient><linearGradient xlink:href="#b" id="l" x1="219.48" x2="265.96" y1="331.93" y2="398.11" gradientUnits="userSpaceOnUse"/><linearGradient xlink:href="#d" id="m" x1="258.07" x2="209.68" y1="389.2" y2="283.49" gradientUnits="userSpaceOnUse"/><linearGradient xlink:href="#c" id="n" x1="256.43" x2="312.91" y1="398.25" y2="293.2" gradientUnits="userSpaceOnUse"/><circle cx="255" cy="255" r="255" fill="url(#e)"/><path fill="url(#f)" d="M510 255c0 140.28-113.28 254.11-253.35 254.99 69.66-.88 125.85-57.62 125.85-127.49 0-70.42-57.08-127.5-127.5-127.5s-127.5-57.08-127.5-127.5C127.5 57.63 183.69.89 253.35.01L255 0l1.65.01C396.72.89 510 114.72 510 255"/><path fill="url(#g)" d="M369.07 26.9a254 254 0 0 1 26.9 114.06c0 140.83-114.18 255-255 255-41.02 0-79.75-9.7-114.08-26.9C68.76 452.64 155.17 510 255 510c140.83 0 255-114.17 255-255 0-99.83-57.37-186.24-140.93-228.1"/><path fill="url(#h)" d="M255 21.37c-34.42 0-66.52 7.18-93.6 19.56a127 127 0 0 0-33.9 86.57c0 70.42 57.08 127.5 127.5 127.5 20.1 0 39.1 4.66 56.02 12.94 69.3-16.88 119.22-64.22 119.22-119.98 0-69.91-78.46-126.59-175.24-126.59"/><path fill="url(#i)" d="M296.1 127.5a41.1 41.1 0 1 1-82.2 0 41.1 41.1 0 0 1 82.2 0"/><path fill="url(#j)" d="M289.3 127.5a34.3 34.3 0 1 1-68.6 0 34.3 34.3 0 0 1 68.6 0"/><path fill="url(#k)" d="M273.38 90.74a41.1 41.1 0 0 1-55.15 55.14 41.1 41.1 0 1 0 55.15-55.14"/><path fill="url(#l)" d="M296.1 382.5a41.1 41.1 0 1 1-82.2 0 41.1 41.1 0 0 1 82.2 0"/><path fill="url(#m)" d="M289.3 382.5a34.3 34.3 0 1 1-68.6 0 34.3 34.3 0 0 1 68.6 0"/><path fill="url(#n)" d="M273.38 345.74a41.1 41.1 0 0 1-55.15 55.14 41.1 41.1 0 1 0 55.15-55.14"/></svg>