<svg xmlns="http://www.w3.org/2000/svg" xmlns:xlink="http://www.w3.org/1999/xlink" width="512" height="512" viewBox="0 0 510 510"><linearGradient id="a"><stop offset="0" stop-color="#eaf9fa"/><stop offset="1" stop-color="#a8d3d8"/></linearGradient><linearGradient xlink:href="#a" id="h" x1="205.15" x2="395.32" y1="264.85" y2="455.01" gradientUnits="userSpaceOnUse"/><linearGradient id="b"><stop offset="0" stop-color="#7ca1b1" stop-opacity="0"/><stop offset="1" stop-color="#7ca1b1"/></linearGradient><linearGradient xlink:href="#b" id="i" x1="344" x2="304.31" y1="230.5" y2="230.5" gradientUnits="userSpaceOnUse"/><linearGradient xlink:href="#b" id="j" x1="255" x2="255" y1="451" y2="525.11" gradientUnits="userSpaceOnUse"/><linearGradient xlink:href="#b" id="k" x1="302.43" x2="234.35" y1="479.57" y2="411.49" gradientUnits="userSpaceOnUse"/><linearGradient xlink:href="#b" id="l" x1="471" x2="512.98" y1="334" y2="334" gradientUnits="userSpaceOnUse"/><linearGradient id="c"><stop offset="0" stop-color="#d1f19e"/><stop offset="1" stop-color="#8bc727"/></linearGradient><linearGradient xlink:href="#c" id="m" x1="339.26" x2="407.93" y1="191.1" y2="282.44" gradientUnits="userSpaceOnUse"/><linearGradient xlink:href="#c" id="n" x1="400.41" x2="463.41" y1="234.4" y2="285.4" gradientUnits="userSpaceOnUse"/><linearGradient xlink:href="#b" id="o" x1="2637.68" x2="2595.38" y1="-1967.15" y2="-2050.51" gradientTransform="matrix(0 1 1 0 2128 -2128)" gradientUnits="userSpaceOnUse"/><linearGradient xlink:href="#a" id="p" x1="35.43" x2="94.74" y1="439.17" y2="498.48" gradientUnits="userSpaceOnUse"/><linearGradient id="d"><stop offset="0" stop-color="#fee45a"/><stop offset="1" stop-color="#fea613"/></linearGradient><linearGradient xlink:href="#d" id="q" x1="152.71" x2="223.71" y1="212.35" y2="389.35" gradientUnits="userSpaceOnUse"/><linearGradient id="r" x1="327" x2="258.93" y1="312.8" y2="312.8" gradientUnits="userSpaceOnUse"><stop offset="0" stop-color="#dc8758" stop-opacity="0"/><stop offset=".22" stop-color="#dd8654" stop-opacity=".21"/><stop offset=".43" stop-color="#e28448" stop-opacity=".43"/><stop offset=".64" stop-color="#ea8034" stop-opacity=".64"/><stop offset=".85" stop-color="#f47b18" stop-opacity=".85"/><stop offset="1" stop-color="#fe7701"/></linearGradient><linearGradient xlink:href="#a" id="s" x1="171.5" x2="206.38" y1="348.4" y2="409.84" gradientUnits="userSpaceOnUse"/><linearGradient xlink:href="#b" id="t" x1="193" x2="193" y1="379" y2="424" gradientUnits="userSpaceOnUse"/><linearGradient xlink:href="#b" id="u" x1="226.5" x2="201.99" y1="346.51" y2="346.51" gradientUnits="userSpaceOnUse"/><linearGradient xlink:href="#b" id="v" x1="327.03" x2="265.25" y1="463.63" y2="401.86" gradientUnits="userSpaceOnUse"/><linearGradient xlink:href="#d" id="w" x1="188" x2="198.34" y1="379.14" y2="379.14" gradientUnits="userSpaceOnUse"/><linearGradient xlink:href="#d" id="x" x1="187.83" x2="198.16" y1="340.36" y2="355.69" gradientUnits="userSpaceOnUse"/><linearGradient id="e"><stop offset="0" stop-color="#f89580"/><stop offset="1" stop-color="#c4573a"/></linearGradient><linearGradient xlink:href="#e" id="y" x1="193" x2="193" y1="320.5" y2="291.5" gradientUnits="userSpaceOnUse"/><linearGradient id="f"><stop offset="0" stop-color="#c4573a" stop-opacity="0"/><stop offset=".24" stop-color="#bb5438" stop-opacity=".24"/><stop offset=".63" stop-color="#a44b33" stop-opacity=".63"/><stop offset="1" stop-color="#883f2e"/></linearGradient><linearGradient xlink:href="#f" id="z" x1="193" x2="193" y1="320.5" y2="291.5" gradientUnits="userSpaceOnUse"/><linearGradient xlink:href="#a" id="A" x1="162.16" x2="119.25" y1="299.7" y2="353.73" gradientUnits="userSpaceOnUse"/><linearGradient xlink:href="#a" id="B" x1="224.07" x2="247.48" y1="300.64" y2="325.72" gradientUnits="userSpaceOnUse"/><linearGradient xlink:href="#e" id="C" x1="77.47" x2="105.45" y1="157.88" y2="185.86" gradientUnits="userSpaceOnUse"/><linearGradient xlink:href="#e" id="D" x1="273.13" x2="312.29" y1="152.56" y2="191.72" gradientUnits="userSpaceOnUse"/><linearGradient xlink:href="#e" id="E" x1="125.44" x2="259.68" y1="129.22" y2="219.46" gradientUnits="userSpaceOnUse"/><linearGradient id="g"><stop offset="0" stop-color="#5a5a5a"/><stop offset="1" stop-color="#444"/></linearGradient><linearGradient xlink:href="#g" id="F" x1="134.37" x2="161.37" y1="178.46" y2="195.13" gradientUnits="userSpaceOnUse"/><linearGradient xlink:href="#g" id="G" x1="220.62" x2="257.62" y1="174.87" y2="201.54" gradientUnits="userSpaceOnUse"/><linearGradient xlink:href="#f" id="H" x1="193" x2="193" y1="204.02" y2="238.99" gradientUnits="userSpaceOnUse"/><linearGradient xlink:href="#f" id="I" x1="199.03" x2="219.67" y1="208.2" y2="213.22" gradientUnits="userSpaceOnUse"/><linearGradient id="J" x1="-1804.96" x2="-1784.33" y1="208.2" y2="213.22" gradientTransform="matrix(-1 0 0 1 -1618 0)" gradientUnits="userSpaceOnUse"><stop offset="0" stop-color="#ffddcd" stop-opacity="0"/><stop offset="1" stop-color="#ffddcd"/></linearGradient><linearGradient xlink:href="#g" id="K" x1="147.63" x2="216.29" y1="33.76" y2="147.09" gradientUnits="userSpaceOnUse"/><linearGradient xlink:href="#c" id="L" x1="191.74" x2="254.74" y1="368.88" y2="431.88" gradientUnits="userSpaceOnUse"/><path fill="url(#h)" d="M0 422.4V179.7A21.7 21.7 0 0 1 21.71 158H488.3a21.7 21.7 0 0 1 21.7 21.7v308.6q0 3-.78 5.77A21.7 21.7 0 0 1 488.3 510H87.6A87.6 87.6 0 0 1 0 422.4"/><path fill="url(#i)" d="M234 158h187.1v145H234z"/><path fill="#fff" d="M209.7 476.4h-33.4a10.3 10.3 0 0 1-10.3-10.3v-33.4a10.3 10.3 0 0 1 10.3-10.3h33.4a10.3 10.3 0 0 1 10.3 10.3v33.4a10.3 10.3 0 0 1-10.3 10.3"/><path fill="url(#j)" d="M0 313v109.4A87.6 87.6 0 0 0 87.6 510h400.7a21.7 21.7 0 0 0 21.7-21.7V313z"/><path fill="url(#k)" d="m283.2 363.16-108.35 86.01 60.82 60.82h194.36z"/><path fill="url(#l)" d="M359.79 158h128.5c12 0 21.71 9.73 21.71 21.7v308.6c0 12-9.71 21.7-21.7 21.7H359.79z"/><path fill="url(#m)" d="M422.68 250.59h-6.37l2-10.11c-.1-3.82-3.28-5.19-6.47-5.19-2.73 0-5.55 1.1-5.91 2.91l-2.37 12.39h-9.38l1.91-10.1c0-3.83-3.18-5.2-6.37-5.2-2.73 0-5.56 1.1-5.92 2.91l-2.37 12.39h-8.47c-2.36 0-3.91 2.37-3.91 5.37 0 3.1 1.46 5.1 3.82 5.1h6.47l-1.91 9.83h-8.38c-2.28 0-3.92 2.37-3.92 5.37 0 3.1 1.55 5.1 3.83 5.1h6.37l-2 11.11c0 3.46 3.91 5.2 6.92 5.2 2.18 0 5.1-1.38 5.46-3.1l2.55-13.2h9.2l-2.1 11.1c0 3.46 4 5.2 7.01 5.2 2.28 0 5.1-1.38 5.47-3.1l2.54-13.2h8.29c2 0 4.1-2.1 4.1-5.29 0-2.91-2-5.19-4-5.19h-6.38l2-9.83h8.2c2 0 4-2.19 4-5.28 0-2.92-1.9-5.2-3.91-5.2m-23.13 20.3h-9.28l1.9-9.83h9.3z"/><path fill="url(#n)" d="M469.7 299.27v-2.47c0-8.74-5.35-10.43-12.52-10.43-4.43 0-5.87-3.91-5.87-7.82s1.44-7.82 5.87-7.82c4.95 0 10.16-.65 10.16-11.21 0-7.56-4.3-9.38-9.64-9.38-6.39 0-9.64 1.56-9.64 6.64 0 4.43-1.96 7.43-9.52 7.43-9.38 0-10.56-1.95-10.56-8.2 0-10.18 7.3-23.34 29.72-23.34 16.55 0 29.07 6 29.07 23.6 0 9.5-3.52 18.37-10.04 21.37 7.69 2.86 13.3 8.6 13.3 19.16v2.47c0 21.38-14.73 29.46-32.98 29.46-22.42 0-31.02-13.69-31.02-24.63 0-5.87 2.47-7.43 9.64-7.43 8.34 0 10.43 1.82 10.43 6.77 0 6.13 5.73 7.56 11.6 7.56 8.86 0 12-3.26 12-11.73"/><path fill="url(#o)" d="M162.46 510H87.6q-2.89-.01-5.73-.21V429.4z"/><path fill="url(#p)" d="M65.9 422.4H0C0 472 37 510 87.6 510v-65.9a21.7 21.7 0 0 0-21.7-21.7"/><path fill="#fff" d="M374.75 413.3h105.66a9.62 9.62 0 0 0 0-19.23H374.75a9.62 9.62 0 0 0 0 19.23m38.59-44.4c0 5.32 4.3 9.62 9.62 9.62h57.45a9.62 9.62 0 0 0 0-19.23h-57.46a9.6 9.6 0 0 0-9.61 9.62m-38.41-9.61a9.61 9.61 0 1 0 0 19.22h18.66a9.62 9.62 0 0 0 0-19.23z"/><path fill="url(#q)" d="M339.9 413.3H46.1a15.6 15.6 0 0 1-15.6-15.6V227.9a15.6 15.6 0 0 1 15.6-15.6h293.8a15.6 15.6 0 0 1 15.6 15.6v169.8a15.6 15.6 0 0 1-15.6 15.6"/><path fill="url(#r)" d="M339.9 212.3H234v201h105.9a15.6 15.6 0 0 0 15.6-15.6V227.9a15.6 15.6 0 0 0-15.6-15.6"/><path fill="url(#s)" d="M336.6 413.3H49.4a12.45 12.45 0 0 1-12.38-12.53c0-66.85 53.52-121.04 119.55-121.04h72.86c66.02 0 119.55 54.19 119.55 121.04 0 6.92-5.54 12.53-12.38 12.53"/><path fill="url(#t)" d="M336.6 413.3H49.4a12.45 12.45 0 0 1-12.38-12.53c0-66.85 53.52-121.04 119.55-121.04h72.86c66.02 0 119.55 54.19 119.55 121.04 0 6.92-5.54 12.53-12.38 12.53"/><path fill="url(#u)" d="M193 413.3h143.6c6.84 0 12.38-5.61 12.38-12.53 0-66.85-53.53-121.04-119.55-121.04H193z"/><path fill="url(#v)" d="M220.04 413.3h113.3l-50.14-50.14z"/><path fill="url(#w)" d="M205.37 405.17h-24.74l4.7-52.06h15.34z"/><path fill="url(#x)" d="M197.81 365.67h-9.62a8.2 8.2 0 0 1-8.05-6.62l-2.88-14.6a8.2 8.2 0 0 1 8.05-9.78h15.38a8.2 8.2 0 0 1 8.05 9.79l-2.88 14.59a8.2 8.2 0 0 1-8.05 6.62"/><path fill="url(#y)" d="M193 257.37h-56.34c0 49.44 56.34 77.32 56.34 77.32s56.34-27.88 56.34-77.32z"/><path fill="url(#z)" d="M193 257.37h-56.34c0 49.44 56.34 77.32 56.34 77.32s56.34-27.88 56.34-77.32z"/><path fill="url(#A)" d="m193 334.69-58.3-66.75-3.51 1.2a16.77 16.77 0 0 0-10.1 22.23l26.1 63.63a7 7 0 0 0 10.33 3.18z"/><path fill="url(#B)" d="m193 334.69 58.3-66.75 3.51 1.2a16.77 16.77 0 0 1 10.1 22.23L238.81 355a7 7 0 0 1-10.33 3.18z"/><path fill="url(#C)" d="M67.23 172.92A34.8 34.8 0 0 1 94 139.06a6.56 6.56 0 0 1 8.02 6.41v54.89a6.56 6.56 0 0 1-8.02 6.41 34.8 34.8 0 0 1-26.77-33.85"/><path fill="url(#D)" d="M318.77 172.92A34.8 34.8 0 0 0 292 139.06a6.56 6.56 0 0 0-8.02 6.41v54.89a6.56 6.56 0 0 0 8.02 6.41 34.8 34.8 0 0 0 26.77-33.85"/><path fill="url(#E)" d="M193 301.07c-55.58 0-100.63-45.05-100.63-100.63v-51.6C92.37 93.25 137.42 48.2 193 48.2s100.63 45.06 100.63 100.63v51.6c0 55.59-45.05 100.64-100.63 100.64"/><path fill="url(#F)" d="M148.39 209.2a17.6 17.6 0 0 1-17.58-17.57v-9.02a17.58 17.58 0 1 1 35.16 0v9.02c0 9.7-7.87 17.58-17.58 17.58"/><path fill="url(#G)" d="M237.6 209.2a17.6 17.6 0 0 1-17.57-17.57v-9.02a17.58 17.58 0 1 1 35.16 0v9.02c0 9.7-7.87 17.58-17.58 17.58"/><path fill="url(#H)" d="M198.56 233.5h-11.12a14.9 14.9 0 0 1-14.66-17.5l5.23-29.37a7.84 7.84 0 0 1 7.71-6.46h14.56c3.8 0 7.05 2.72 7.71 6.46l5.23 29.37a14.9 14.9 0 0 1-14.66 17.5"/><path fill="url(#I)" d="M198.56 233.5h-11.12a14.9 14.9 0 0 1-14.66-17.5l5.23-29.37a7.84 7.84 0 0 1 7.71-6.46h14.56c3.8 0 7.05 2.72 7.71 6.46l5.23 29.37a14.9 14.9 0 0 1-14.66 17.5"/><path fill="url(#J)" d="M187.44 233.5h11.12a14.9 14.9 0 0 0 14.66-17.5l-5.23-29.37a7.84 7.84 0 0 0-7.71-6.46h-14.56a7.84 7.84 0 0 0-7.71 6.46L172.78 216a14.9 14.9 0 0 0 14.66 17.5"/><path fill="url(#K)" d="M304.33 156.28q-1.22.6-2.48 1.07c-14.48 5.42-29.85-5.78-29.85-21.24v-5.6A25.5 25.5 0 0 0 246.5 105h-107a25.5 25.5 0 0 0-25.5 25.5c0 17.51-21.67 25.85-33.3 12.76-22.19-24.96-24.83-65.62 2.54-93l5.9-5.89C126.67 6.84 178.99-6.88 227.33 3.21c27.28 5.69 45.34 26.31 50.82 49.99 13.96 4.51 27.83 17.04 36.5 34.73 13.82 28.18 9.2 58.78-10.32 68.35"/><path fill="url(#L)" d="M194.86 457.44a28.2 28.2 0 0 1-20-8.27l-24.84-24.83a12.5 12.5 0 0 1 17.68-17.68l24.83 24.83c.8.8 1.7.97 2.33.97s1.53-.17 2.33-.97l68.33-68.33a12.5 12.5 0 1 1 17.68 17.68l-68.34 68.33a28.2 28.2 0 0 1-20 8.27"/></svg>