<svg xmlns="http://www.w3.org/2000/svg" xmlns:xlink="http://www.w3.org/1999/xlink" width="512" height="512" viewBox="0 0 510 510"><linearGradient id="a"><stop offset="0" stop-color="#fedf30"/><stop offset="1" stop-color="#f6ab31"/></linearGradient><linearGradient xlink:href="#a" id="c" x1="197.41" x2="305.35" y1="254.31" y2="447.7" gradientUnits="userSpaceOnUse"/><linearGradient id="b"><stop offset="0" stop-color="#754c24" stop-opacity="0"/><stop offset="1" stop-color="#754c24"/></linearGradient><linearGradient xlink:href="#b" id="d" x1="216.12" x2="312.07" y1="265.42" y2="526.28" gradientUnits="userSpaceOnUse"/><linearGradient xlink:href="#b" id="e" x1="258.69" x2="270.69" y1="320.59" y2="215.65" gradientUnits="userSpaceOnUse"/><linearGradient xlink:href="#a" id="f" x1="105.61" x2="141.79" y1="204.33" y2="240.51" gradientUnits="userSpaceOnUse"/><linearGradient xlink:href="#a" id="g" x1="358.61" x2="409.24" y1="197.46" y2="248.09" gradientUnits="userSpaceOnUse"/><linearGradient xlink:href="#b" id="h" x1="409.25" x2="365.72" y1="223.78" y2="223.78" gradientUnits="userSpaceOnUse"/><linearGradient xlink:href="#a" id="i" x1="213.58" x2="255.56" y1="392.14" y2="490.09" gradientUnits="userSpaceOnUse"/><linearGradient xlink:href="#b" id="j" x1="431.25" x2="366.49" y1="464.16" y2="464.16" gradientUnits="userSpaceOnUse"/><linearGradient xlink:href="#a" id="k" x1="156.47" x2="150.08" y1="492.72" y2="520.37" gradientUnits="userSpaceOnUse"/><linearGradient xlink:href="#a" id="l" x1="204.85" x2="194.19" y1="471.46" y2="517.57" gradientUnits="userSpaceOnUse"/><linearGradient xlink:href="#a" id="m" x1="241.38" x2="217.89" y1="463.62" y2="504.6" gradientUnits="userSpaceOnUse"/><linearGradient xlink:href="#b" id="n" x1="215.81" x2="240.46" y1="443.38" y2="499.35" gradientUnits="userSpaceOnUse"/><linearGradient xlink:href="#a" id="o" x1="147.48" x2="141.09" y1="492.72" y2="520.37" gradientTransform="matrix(-1 0 0 1 501.01 0)" gradientUnits="userSpaceOnUse"/><linearGradient xlink:href="#a" id="p" x1="195.87" x2="185.2" y1="471.46" y2="517.57" gradientTransform="matrix(-1 0 0 1 501.01 0)" gradientUnits="userSpaceOnUse"/><linearGradient xlink:href="#a" id="q" x1="232.39" x2="208.9" y1="463.62" y2="504.6" gradientTransform="matrix(-1 0 0 1 501.01 0)" gradientUnits="userSpaceOnUse"/><linearGradient xlink:href="#a" id="r" x1="124.88" x2="385.12" y1="226.01" y2="226.01" gradientUnits="userSpaceOnUse"/><linearGradient xlink:href="#b" id="s" x1="255" x2="255" y1="251.28" y2="325.68" gradientUnits="userSpaceOnUse"/><linearGradient xlink:href="#b" id="t" x1="172.7" x2="211.38" y1="203.4" y2="242.08" gradientUnits="userSpaceOnUse"/><linearGradient xlink:href="#b" id="u" x1="284.35" x2="338.39" y1="199.69" y2="253.74" gradientUnits="userSpaceOnUse"/><linearGradient xlink:href="#a" id="v" x1="127.96" x2="214.56" y1="88.43" y2="175.02" gradientUnits="userSpaceOnUse"/><linearGradient xlink:href="#b" id="w" x1="157.34" x2="157.34" y1="179.24" y2="133.25" gradientUnits="userSpaceOnUse"/><linearGradient xlink:href="#a" id="x" x1="240.74" x2="404.96" y1="28.72" y2="192.94" gradientUnits="userSpaceOnUse"/><linearGradient xlink:href="#b" id="y" x1="308.7" x2="308.7" y1="119.94" y2="226.12" gradientUnits="userSpaceOnUse"/><linearGradient xlink:href="#b" id="z" x1="329.53" x2="329.53" y1="179.24" y2="133.25" gradientUnits="userSpaceOnUse"/><linearGradient xlink:href="#a" id="A" x1="1466.92" x2="1505.9" y1="-911.58" y2="-892.59" gradientTransform="rotate(89.48 423.4 -935.78)" gradientUnits="userSpaceOnUse"/><linearGradient xlink:href="#b" id="B" x1="398.08" x2="363.1" y1="132.48" y2="119.82" gradientUnits="userSpaceOnUse"/><linearGradient xlink:href="#b" id="C" x1="1520.82" x2="1431.87" y1="-919.21" y2="-857.25" gradientTransform="rotate(89.48 423.4 -935.78)" gradientUnits="userSpaceOnUse"/><linearGradient xlink:href="#a" id="D" x1="1373.36" x2="1415.17" y1="-533.68" y2="-513.32" gradientTransform="rotate(70.8 419.52 -939.55)" gradientUnits="userSpaceOnUse"/><linearGradient xlink:href="#b" id="E" x1="353.63" x2="315.98" y1="125.08" y2="119.75" gradientUnits="userSpaceOnUse"/><linearGradient xlink:href="#b" id="F" x1="1431.17" x2="1335.78" y1="-541.87" y2="-475.42" gradientTransform="rotate(70.8 419.52 -939.55)" gradientUnits="userSpaceOnUse"/><linearGradient xlink:href="#a" id="G" x1="1088.83" x2="1132.73" y1="-98.41" y2="-77.02" gradientTransform="rotate(45 447.64 -966.56)" gradientUnits="userSpaceOnUse"/><linearGradient xlink:href="#b" id="H" x1="1149.54" x2="1049.35" y1="-107" y2="-37.21" gradientTransform="rotate(45 447.64 -966.56)" gradientUnits="userSpaceOnUse"/><linearGradient xlink:href="#a" id="I" x1="1468.72" x2="1507.7" y1="-1102.73" y2="-1083.74" gradientTransform="rotate(90.52 1277.98 -72.16)scale(1 -1)" gradientUnits="userSpaceOnUse"/><linearGradient xlink:href="#b" id="J" x1="589.24" x2="554.26" y1="132.48" y2="119.82" gradientTransform="matrix(-1 0 0 1 701.17 0)" gradientUnits="userSpaceOnUse"/><linearGradient xlink:href="#b" id="K" x1="1522.62" x2="1433.67" y1="-1110.36" y2="-1048.4" gradientTransform="rotate(90.52 1277.98 -72.16)scale(1 -1)" gradientUnits="userSpaceOnUse"/><linearGradient xlink:href="#a" id="L" x1="1436.18" x2="1477.98" y1="-714.23" y2="-693.87" gradientTransform="rotate(109.2 1018.34 -49)scale(1 -1)" gradientUnits="userSpaceOnUse"/><linearGradient xlink:href="#b" id="M" x1="544.79" x2="507.14" y1="125.08" y2="119.75" gradientTransform="matrix(-1 0 0 1 701.17 0)" gradientUnits="userSpaceOnUse"/><linearGradient xlink:href="#b" id="N" x1="1493.98" x2="1398.59" y1="-722.42" y2="-655.97" gradientTransform="rotate(109.2 1018.34 -49)scale(1 -1)" gradientUnits="userSpaceOnUse"/><linearGradient xlink:href="#a" id="O" x1="1224.01" x2="1267.91" y1="-233.58" y2="-212.19" gradientTransform="rotate(135 750.95 -40.2)scale(1 -1)" gradientUnits="userSpaceOnUse"/><linearGradient xlink:href="#b" id="P" x1="1284.71" x2="1184.52" y1="-242.18" y2="-172.38" gradientTransform="rotate(135 750.95 -40.2)scale(1 -1)" gradientUnits="userSpaceOnUse"/><linearGradient xlink:href="#a" id="Q" x1="255" x2="255" y1="146.4" y2="178.33" gradientUnits="userSpaceOnUse"/><linearGradient xlink:href="#b" id="R" x1="255" x2="255" y1="158.92" y2="202.44" gradientUnits="userSpaceOnUse"/><linearGradient xlink:href="#b" id="S" x1="255" x2="255" y1="445.78" y2="512.75" gradientUnits="userSpaceOnUse"/><path fill="url(#c)" d="M426.17 295.65a54 54 0 0 0 1.67-13.99c-.33-29.8-25.17-53.53-54.97-53.53H137.13c-29.8 0-54.63 23.73-54.97 53.53a54 54 0 0 0 1.67 13.99c2.52 9.93-1.19 20.3-8.9 27.03a68.2 68.2 0 0 0-23.4 52.44c.5 37.57 31.85 67.43 69.42 67.43h268.1c37.57 0 68.92-29.86 69.42-67.43a68.2 68.2 0 0 0-23.4-52.44c-7.71-6.74-11.42-17.1-8.9-27.03"/><path fill="url(#d)" d="M426.17 295.65a54 54 0 0 0 1.67-13.99c-.33-29.8-25.17-53.53-54.97-53.53H137.13c-29.8 0-54.63 23.73-54.97 53.53a54 54 0 0 0 1.67 13.99c2.52 9.93-1.19 20.3-8.9 27.03a68.2 68.2 0 0 0-23.4 52.44c.5 37.57 31.85 67.43 69.42 67.43h268.1c37.57 0 68.92-29.86 69.42-67.43a68.2 68.2 0 0 0-23.4-52.44c-7.71-6.74-11.42-17.1-8.9-27.03"/><path fill="url(#e)" d="M74.93 322.68a68.4 68.4 0 0 0-20.03 30.24h400.2a68.4 68.4 0 0 0-20.03-30.24c-7.71-6.74-11.42-17.1-8.9-27.03a54 54 0 0 0 1.67-13.99c-.33-29.8-25.17-53.53-54.97-53.53H137.13c-29.8 0-54.63 23.73-54.97 53.53a54 54 0 0 0 1.67 13.99c2.52 9.93-1.19 20.3-8.9 27.03"/><path fill="url(#f)" d="M92.38 223.78a45 45 0 0 1 34.6-43.78 8.5 8.5 0 0 1 10.38 8.3v70.96a8.5 8.5 0 0 1-10.37 8.3 45 45 0 0 1-34.61-43.78"/><path fill="url(#g)" d="M417.62 223.78A45 45 0 0 0 383 180a8.5 8.5 0 0 0-10.37 8.3v70.96a8.5 8.5 0 0 0 10.37 8.3 45 45 0 0 0 34.6-43.78"/><path fill="url(#h)" d="M417.62 223.78A45 45 0 0 0 383 180a8.5 8.5 0 0 0-10.37 8.3v70.96a8.5 8.5 0 0 0 10.37 8.3 45 45 0 0 0 34.6-43.78"/><path fill="url(#i)" d="M439.43 485.3c-16.1-60.96-92.09-107.59-183.82-108.39h-1.22c-91.73.8-167.72 47.43-183.82 108.4C67.22 498 78.2 510.12 93.03 510h323.94c14.83.13 25.81-11.99 22.46-24.7"/><path fill="url(#j)" d="M390.6 418.32V510h26.37c14.83.13 25.81-11.99 22.46-24.7-6.77-25.64-24.15-48.75-48.83-66.98"/><path fill="url(#k)" d="M198.77 510h-82.34v-44.32z"/><path fill="url(#l)" d="M116.43 421.35s-8.78 8.21-8.78 31.4c0 31.35 72.45 57.25 72.45 57.25h119.42s-133.14-10.09-183.09-88.65"/><path fill="url(#m)" d="M373.86 510h-74.34c-50.45 0-99.55-13.48-140-38.44l-8.59-5.28c-18.25-11.27-31.48-26.87-38.22-44.4-2.75-7.14.3-15.2 6.93-19a459 459 0 0 1 24.75-12.99 15.66 15.66 0 0 1 19.59 4.93c17.67 24.43 73.06 83.74 209.88 115.18"/><path fill="url(#n)" d="M373.86 510c-136.82-31.44-192.2-90.75-209.88-115.18a15.66 15.66 0 0 0-19.59-4.93 459 459 0 0 0-24.75 13 15.56 15.56 0 0 0-6.93 18.99q.56 1.45 1.19 2.89c-2.6 4.3-6.25 13.02-6.25 27.98 0 6.81 3.43 13.37 8.78 19.46V510h183.09-.06z"/><path fill="url(#o)" d="M311.23 510h82.34v-44.32z"/><path fill="url(#p)" d="M393.57 421.35s8.78 8.21 8.78 31.4c0 31.35-72.45 57.25-72.45 57.25H210.48s133.14-10.09 183.09-88.65"/><path fill="url(#q)" d="M136.14 510h74.34c50.45 0 99.55-13.48 140-38.44l8.58-5.28c18.26-11.27 31.49-26.87 38.23-44.4 2.75-7.14-.3-15.2-6.93-19a459 459 0 0 0-24.75-12.99 15.66 15.66 0 0 0-19.59 4.93c-17.67 24.43-73.06 83.74-209.88 115.18"/><path fill="url(#r)" d="M255 389.49c-71.87 0-130.12-58.26-130.12-130.12v-66.73c0-71.86 58.25-130.12 130.12-130.12 71.86 0 130.12 58.26 130.12 130.12v66.73c0 71.86-58.26 130.12-130.12 130.12"/><path fill="url(#s)" d="M262.19 292.1H247.8a19.25 19.25 0 0 1-18.95-22.63l8.24-46.32h35.8l8.24 46.33a19.25 19.25 0 0 1-18.95 22.62"/><path fill="url(#t)" d="M197.32 251.78a18.9 18.9 0 0 1-18.91-18.9v-9.7a18.91 18.91 0 1 1 37.82 0v9.7a18.9 18.9 0 0 1-18.91 18.9"/><path fill="url(#u)" d="M312.68 251.78a18.9 18.9 0 0 1-18.91-18.9v-9.7a18.91 18.91 0 1 1 37.82 0v9.7a18.9 18.9 0 0 1-18.91 18.9"/><path fill="url(#v)" d="M89.42 103.37C146.34-21.13 234.88 58.2 245.08 75.6c11.29 19.24-10.05 55.47-17.41 66.92q-2.08 3.21-4.06 6.5c-7.72 12.84-41.68 63.43-97.56 63.43-16.16 0-58.43-59.04-36.63-109.08"/><path fill="url(#w)" d="M83.37 136.6c1.41 39.7 30.04 75.85 42.68 75.85 55.88 0 89.84-50.6 97.56-63.43q1.99-3.29 4.06-6.5c1-1.55 2.25-3.57 3.65-5.92z"/><path fill="url(#x)" d="M398.3 82.09C286-66.7 197.03 28.11 189.37 48.9c-8.47 23 30.36 66.3 43.43 79.98q3.67 3.83 7.26 7.76c13.96 15.35 73.53 75.8 145.4 75.8 20.79 0 56.62-70.55 12.86-130.35"/><path fill="url(#y)" d="M232.79 128.88q3.68 3.83 7.25 7.76c13.97 15.35 73.54 75.8 145.41 75.8 20.46 0 55.47-68.32 14.9-127.48H198.32c10.66 18.1 26.88 35.99 34.46 43.92"/><path fill="url(#z)" d="M240.04 136.64c13.97 15.35 73.54 75.8 145.41 75.8 14.55 0 36.47-34.58 33.3-75.84H240z"/><path fill="url(#A)" d="M397.32 114.78c-13.87.13-26.55 4.4-36.41 11.39a7.83 7.83 0 0 0 .12 12.89c10 6.8 22.75 10.83 36.62 10.7s26.55-4.4 36.42-11.4a7.83 7.83 0 0 0-.13-12.88c-9.99-6.8-22.75-10.83-36.62-10.7"/><path fill="url(#B)" d="M397.32 114.78c-13.87.13-26.55 4.4-36.41 11.39a7.83 7.83 0 0 0 .12 12.89c10 6.8 22.75 10.83 36.62 10.7s26.55-4.4 36.42-11.4a7.83 7.83 0 0 0-.13-12.88c-9.99-6.8-22.75-10.83-36.62-10.7"/><path fill="url(#C)" d="M434.07 138.37a7.8 7.8 0 0 0 3.31-6.48l-79.79.75a7.8 7.8 0 0 0 3.44 6.42c10 6.8 22.75 10.83 36.62 10.7s26.55-4.4 36.42-11.4"/><path fill="url(#D)" d="M340 106.3c-14.05 4.89-25.47 13.57-33.1 24.06a8.4 8.4 0 0 0 4.54 13.06c12.5 3.49 26.84 3.2 40.89-1.68 14.05-4.9 25.47-13.58 33.1-24.07a8.4 8.4 0 0 0-4.55-13.05c-12.49-3.49-26.83-3.2-40.88 1.68"/><path fill="url(#E)" d="M340 106.3c-14.05 4.89-25.47 13.57-33.1 24.06a8.4 8.4 0 0 0 4.54 13.06c12.5 3.49 26.84 3.2 40.89-1.68 14.05-4.9 25.47-13.58 33.1-24.07a8.4 8.4 0 0 0-4.55-13.05c-12.49-3.49-26.83-3.2-40.88 1.68"/><path fill="url(#F)" d="M385.42 117.67a8.4 8.4 0 0 0 1.15-7.71l-80.82 28.12a8.4 8.4 0 0 0 5.7 5.34c12.48 3.49 26.83 3.2 40.88-1.68 14.04-4.9 25.47-13.58 33.1-24.07"/><path fill="url(#G)" d="M283.24 115.84c-11.05 11.04-17.88 24.47-20.29 37.88a8.82 8.82 0 0 0 10.26 10.26c13.4-2.4 26.84-9.24 37.89-20.28s17.87-24.48 20.28-37.88a8.82 8.82 0 0 0-10.26-10.27c-13.4 2.41-26.84 9.24-37.88 20.29"/><path fill="url(#H)" d="M331.38 105.82a8.8 8.8 0 0 0-2.44-7.83l-63.55 63.55a8.8 8.8 0 0 0 7.82 2.44c13.4-2.4 26.84-9.24 37.89-20.28 11.04-11.05 17.87-24.48 20.28-37.88"/><path fill="url(#I)" d="M112.68 114.78c13.87.13 26.55 4.4 36.41 11.39a7.83 7.83 0 0 1-.12 12.89c-10 6.8-22.75 10.83-36.62 10.7s-26.55-4.4-36.42-11.4a7.83 7.83 0 0 1 .13-12.88c9.99-6.8 22.75-10.83 36.62-10.7"/><path fill="url(#J)" d="M112.68 114.78c13.87.13 26.55 4.4 36.41 11.39a7.83 7.83 0 0 1-.12 12.89c-10 6.8-22.75 10.83-36.62 10.7s-26.55-4.4-36.42-11.4a7.83 7.83 0 0 1 .13-12.88c9.99-6.8 22.75-10.83 36.62-10.7"/><path fill="url(#K)" d="M75.94 138.37a7.8 7.8 0 0 1-3.32-6.48l79.79.75a7.8 7.8 0 0 1-3.44 6.42c-10 6.8-22.75 10.83-36.62 10.7s-26.55-4.4-36.42-11.4"/><path fill="url(#L)" d="M170 106.3c14.05 4.89 25.47 13.57 33.1 24.06a8.4 8.4 0 0 1-4.54 13.06c-12.5 3.49-26.84 3.2-40.89-1.68-14.05-4.9-25.47-13.58-33.1-24.07a8.4 8.4 0 0 1 4.55-13.05c12.49-3.49 26.83-3.2 40.88 1.68"/><path fill="url(#M)" d="M170 106.3c14.05 4.89 25.47 13.57 33.1 24.06a8.4 8.4 0 0 1-4.54 13.06c-12.5 3.49-26.84 3.2-40.89-1.68-14.05-4.9-25.47-13.58-33.1-24.07a8.4 8.4 0 0 1 4.55-13.05c12.49-3.49 26.83-3.2 40.88 1.68"/><path fill="url(#N)" d="M124.58 117.67a8.4 8.4 0 0 1-1.15-7.71l80.82 28.12a8.4 8.4 0 0 1-5.7 5.34c-12.48 3.49-26.83 3.2-40.88-1.68-14.05-4.9-25.47-13.58-33.1-24.07"/><path fill="url(#O)" d="M226.77 115.84c11.04 11.04 17.87 24.47 20.28 37.88a8.82 8.82 0 0 1-10.26 10.26c-13.4-2.4-26.84-9.24-37.89-20.28s-17.87-24.48-20.28-37.88a8.82 8.82 0 0 1 10.26-10.27c13.4 2.41 26.84 9.24 37.88 20.29"/><path fill="url(#P)" d="M178.62 105.82a8.8 8.8 0 0 1 2.44-7.83l63.55 63.55a8.8 8.8 0 0 1-7.82 2.44c-13.4-2.4-26.84-9.24-37.89-20.28-11.04-11.05-17.87-24.48-20.28-37.88"/><circle cx="255" cy="153.26" r="32.51" fill="url(#Q)"/><path fill="url(#R)" d="M255 185.77a32.5 32.5 0 0 0 32.51-32.51H222.5a32.5 32.5 0 0 0 32.51 32.5"/><path fill="url(#S)" d="M70.57 485.3c-3.35 12.71 7.63 24.83 22.46 24.7h323.94c14.83.13 25.81-11.99 22.46-24.7-6.23-23.6-21.44-45.04-43.05-62.51H113.62C92.01 440.26 76.8 461.7 70.57 485.3"/></svg>